<?xml version="1.0" encoding="UTF-8" standalone="no"?>
<!-- Generator: Adobe Illustrator 19.0.0, SVG Export Plug-In . SVG Version: 6.00 Build 0)  -->

<svg
   xmlns:dc="http://purl.org/dc/elements/1.1/"
   xmlns:cc="http://creativecommons.org/ns#"
   xmlns:rdf="http://www.w3.org/1999/02/22-rdf-syntax-ns#"
   xmlns:svg="http://www.w3.org/2000/svg"
   xmlns="http://www.w3.org/2000/svg"
   xmlns:sodipodi="http://sodipodi.sourceforge.net/DTD/sodipodi-0.dtd"
   xmlns:inkscape="http://www.inkscape.org/namespaces/inkscape"
   version="1.1"
   id="Capa_1"
   x="0px"
   y="0px"
   viewBox="0 0 512 512"
   style="enable-background:new 0 0 512 512;"
   xml:space="preserve"
   sodipodi:docname="logo.svg"
   inkscape:export-filename="/home/vlas/browser_extension_developer/extensions/nutrition_checker/src/img/logo.png"
   inkscape:export-xdpi="48"
   inkscape:export-ydpi="48"
   inkscape:version="0.92.4 (f8dce91, 2019-08-02)"><metadata
   id="metadata55"><rdf:RDF><cc:Work
       rdf:about=""><dc:format>image/svg+xml</dc:format><dc:type
         rdf:resource="http://purl.org/dc/dcmitype/StillImage" /></cc:Work></rdf:RDF></metadata><defs
   id="defs53" /><sodipodi:namedview
   pagecolor="#ffffff"
   bordercolor="#666666"
   borderopacity="1"
   objecttolerance="10"
   gridtolerance="10"
   guidetolerance="10"
   inkscape:pageopacity="0"
   inkscape:pageshadow="2"
   inkscape:window-width="1920"
   inkscape:window-height="1056"
   id="namedview51"
   showgrid="false"
   inkscape:zoom="0.4609375"
   inkscape:cx="-174.37234"
   inkscape:cy="256.09807"
   inkscape:window-x="0"
   inkscape:window-y="24"
   inkscape:window-maximized="1"
   inkscape:current-layer="Capa_1" />



<g
   id="g20"
   style="fill:#4caf50;fill-opacity:1">
</g>
<g
   id="g22"
   style="fill:#4caf50;fill-opacity:1">
</g>
<g
   id="g24"
   style="fill:#4caf50;fill-opacity:1">
</g>
<g
   id="g26"
   style="fill:#4caf50;fill-opacity:1">
</g>
<g
   id="g28"
   style="fill:#4caf50;fill-opacity:1">
</g>
<g
   id="g30"
   style="fill:#4caf50;fill-opacity:1">
</g>
<g
   id="g32"
   style="fill:#4caf50;fill-opacity:1">
</g>
<g
   id="g34"
   style="fill:#4caf50;fill-opacity:1">
</g>
<g
   id="g36"
   style="fill:#4caf50;fill-opacity:1">
</g>
<g
   id="g38"
   style="fill:#4caf50;fill-opacity:1">
</g>
<g
   id="g40"
   style="fill:#4caf50;fill-opacity:1">
</g>
<g
   id="g42"
   style="fill:#4caf50;fill-opacity:1">
</g>
<g
   id="g44"
   style="fill:#4caf50;fill-opacity:1">
</g>
<g
   id="g46"
   style="fill:#4caf50;fill-opacity:1">
</g>
<g
   id="g48"
   style="fill:#4caf50;fill-opacity:1">
</g>
<g
   id="g922"
   transform="translate(11.113344,11.112875)"
   style="fill:#4caf50;fill-opacity:1"><g
     id="XMLID_95_"
     style="fill:#4caf50;fill-opacity:1">
	<path
   d="m 155.183,305.646 c -2.081,0.175 -4.157,0.265 -6.238,0.265 -5.693,0 -11.23,-0.826 -16.652,-2.081 L 6.834,429.293 c -6.158,6.149 -6.158,16.137 0,22.287 l 32.47,32.478 c 6.158,6.15 16.135,6.15 22.276,0 l 150.785,-150.757 -27.944,-30.15 z"
   id="XMLID_98_"
   inkscape:connector-curvature="0"
   style="fill:#4caf50;fill-opacity:1" />
	<path
   d="m 485.345,104.649 c -5.888,-5.885 -15.417,-5.885 -21.304,0 l -81.303,81.301 c -7.693,7.685 -20.154,7.685 -27.847,0 -7.659,-7.679 -7.659,-20.13 0,-27.807 l 80.901,-80.884 c 6.112,-6.118 6.112,-16.036 0,-22.168 -6.141,-6.11 -16.055,-6.11 -22.167,0 l -80.868,80.876 c -7.693,7.693 -20.14,7.693 -27.833,0 -7.677,-7.676 -7.677,-20.136 0,-27.806 L 386.21,26.868 c 5.904,-5.894 5.904,-15.441 0,-21.343 -5.888,-5.895 -15.434,-5.895 -21.338,0 l -91.458,91.463 c -21.989,22.003 -28.935,52.888 -21.816,80.991 l 61.31,61.314 c 28.101,7.093 59.001,0.144 80.965,-21.841 l 91.471,-91.458 c 5.905,-5.894 5.905,-15.451 0.001,-21.345 z"
   id="XMLID_97_"
   inkscape:connector-curvature="0"
   style="fill:#4caf50;fill-opacity:1" />
	<path
   d="M 41.093,13.791 C 37.959,10.656 33.721,8.937 29.369,8.937 c -0.926,0 -1.857,0.079 -2.766,0.231 -5.295,0.896 -9.838,4.295 -12.172,9.133 -26.79,55.373 -15.594,121.631 27.894,165.121 l 77.801,77.791 c 7.676,7.685 18.055,11.939 28.819,11.939 1.151,0 2.305,-0.048 3.456,-0.143 l 45.171,-3.855 196.971,212.489 c 3.058,3.303 7.342,5.221 11.855,5.31 0.093,0 0.19,0 0.288,0 4.412,0 8.636,-1.743 11.771,-4.855 l 33.734,-33.741 c 3.117,-3.11 4.859,-7.331 4.859,-11.73 0,-4.398 -1.742,-8.622 -4.846,-11.732 z"
   id="XMLID_96_"
   inkscape:connector-curvature="0"
   style="fill:#4caf50;fill-opacity:1" />
</g><g
     id="g866"
     style="fill:#4caf50;fill-opacity:1">
</g><g
     id="g868"
     style="fill:#4caf50;fill-opacity:1">
</g><g
     id="g870"
     style="fill:#4caf50;fill-opacity:1">
</g><g
     id="g872"
     style="fill:#4caf50;fill-opacity:1">
</g><g
     id="g874"
     style="fill:#4caf50;fill-opacity:1">
</g><g
     id="g876"
     style="fill:#4caf50;fill-opacity:1">
</g><g
     id="g878"
     style="fill:#4caf50;fill-opacity:1">
</g><g
     id="g880"
     style="fill:#4caf50;fill-opacity:1">
</g><g
     id="g882"
     style="fill:#4caf50;fill-opacity:1">
</g><g
     id="g884"
     style="fill:#4caf50;fill-opacity:1">
</g><g
     id="g886"
     style="fill:#4caf50;fill-opacity:1">
</g><g
     id="g888"
     style="fill:#4caf50;fill-opacity:1">
</g><g
     id="g890"
     style="fill:#4caf50;fill-opacity:1">
</g><g
     id="g892"
     style="fill:#4caf50;fill-opacity:1">
</g><g
     id="g894"
     style="fill:#4caf50;fill-opacity:1">
</g></g></svg>